M48
INCH,LZ
;FILE_FORMAT=2:4
;TYPE=PLATED
;Layer: PTH_Through
;EasyEDA v6.5.14, 2022-08-19 15:33:08
;4789359181944f948eab88b2c3823588,33ad25853f61487886fee39e8dc23a8a,10
;Gerber Generator version 0.2
;Holesize 1 = 0.0120 inch
T01C0.0120
;Holesize 2 = 0.0240 inch
T02C0.0240
;Holesize 3 = 0.0350 inch
T03C0.0350
;Holesize 4 = 0.0360 inch
T04C0.0360
%
G05
G90
T01
X003850Y026907
X004300Y026352
X004150Y024207
X003600Y027007
X003350Y027107
X003100Y027007
X002850Y026907
X004200Y025107
X003950Y024957
X003700Y024807
X002750Y024957
X002700Y024557
X003250Y024807
X003750Y029257
X001800Y028982
X003450Y027857
X002360Y029506
X002200Y030057
X001950Y025083
X001950Y024532
X005509Y032741
X005509Y031241
X001700Y028257
X001150Y029007
X001900Y003450
X004100Y003450
X001350Y004357
X002155Y032707
X002155Y031907
X002750Y031057
X002600Y008864
X002600Y007250
T02
X001299Y002848G85X001299Y003163
X004701Y002848G85X004701Y003163
X001299Y001352G85X001299Y001667
X004701Y001352G85X004701Y001667
T03
X001875Y023257
X001875Y022257
X001875Y021257
X001875Y020257
X001875Y019257
X001875Y018257
X001875Y017257
X001875Y016257
X001875Y015257
X001875Y014257
X001875Y013257
X001875Y012257
X001875Y011257
X001875Y010257
X005025Y023257
X005025Y022257
X005025Y021257
X005025Y020257
X005025Y019257
X005025Y018257
X005025Y017257
X005025Y016257
X005025Y015257
X005025Y014257
X005025Y013257
X005025Y012257
X005025Y011257
X005025Y010257
T04
X001150Y026307
X001150Y025307
M30
