G04 Layer: BottomLayer*
G04 EasyEDA v6.5.14, 2022-08-19 15:33:08*
G04 4789359181944f948eab88b2c3823588,33ad25853f61487886fee39e8dc23a8a,10*
G04 Gerber Generator version 0.2*
G04 Scale: 100 percent, Rotated: No, Reflected: No *
G04 Dimensions in inches *
G04 leading zeros omitted , absolute positions ,3 integer and 6 decimal *
%FSLAX36Y36*%
%MOIN*%

%ADD10C,0.0100*%
%ADD11O,0.043307000000000005X0.074803*%
%ADD12R,0.0591X0.0591*%
%ADD13C,0.0591*%
%ADD14C,0.0600*%
%ADD15C,0.0240*%

%LPD*%
D10*
X415000Y2420709D02*
G01*
X415000Y1853189D01*
X187519Y1625709D01*
X270000Y2455709D02*
G01*
X270000Y1808189D01*
X187519Y1725709D01*
X345000Y2785709D02*
G01*
X345000Y2841628D01*
X236039Y2950590D01*
X385000Y2720709D02*
G01*
X350000Y2755709D01*
X322440Y2755709D01*
X180000Y2898150D01*
X335000Y2710711D02*
G01*
X335000Y2520711D01*
X270000Y2455711D01*
X415000Y2420711D02*
G01*
X415000Y2425711D01*
X440000Y2450711D01*
X440000Y2625210D01*
X430000Y2635210D01*
X385000Y2690711D02*
G01*
X430000Y2645711D01*
X430000Y2635210D01*
X325000Y2480711D02*
G01*
X325000Y2450711D01*
X355000Y2420711D01*
X415000Y2420711D01*
X385000Y2690709D02*
G01*
X385000Y2720709D01*
X115000Y2630709D02*
G01*
X115000Y2833110D01*
X180000Y2898110D01*
X115000Y2530709D02*
G01*
X115000Y2395709D01*
X185000Y2325709D01*
X187519Y2325709D01*
X195000Y2508270D02*
G01*
X137440Y2508270D01*
X115000Y2530709D01*
X195000Y2453150D02*
G01*
X267440Y2453150D01*
X270000Y2455709D01*
X550947Y3274101D02*
G01*
X550947Y3124101D01*
X550947Y3124101D02*
G01*
X550947Y2756154D01*
X430000Y2635210D01*
X335000Y2710709D02*
G01*
X335000Y2715709D01*
X315000Y2735709D01*
X260000Y2735709D01*
X170000Y2825709D01*
X190000Y345000D02*
G01*
X410000Y345000D01*
X135000Y435709D02*
G01*
X135000Y400000D01*
X190000Y345000D01*
X215468Y3270709D02*
G01*
X215468Y3190709D01*
X215468Y3190709D02*
G01*
X215468Y3106181D01*
X180000Y3070709D01*
X180000Y2898150D01*
X220000Y3005709D02*
G01*
X220000Y3050709D01*
X275000Y3105709D01*
X260000Y886419D02*
G01*
X260000Y1353229D01*
X187519Y1425709D01*
X187519Y1525709D02*
G01*
X187519Y1523189D01*
X315000Y1395709D01*
X315000Y780000D01*
X260000Y725000D01*
X135000Y435709D02*
G01*
X135000Y1573189D01*
X187519Y1625709D01*
D11*
G01*
X129929Y300509D03*
G01*
X470079Y300509D03*
G01*
X129929Y150900D03*
G01*
X470079Y150900D03*
D12*
G01*
X187519Y2325709D03*
D13*
G01*
X187519Y2225709D03*
G01*
X187519Y2125709D03*
G01*
X187519Y2025709D03*
G01*
X187519Y1925709D03*
G01*
X187519Y1825709D03*
G01*
X187519Y1725709D03*
G01*
X187519Y1625709D03*
G01*
X187519Y1525709D03*
G01*
X187519Y1425709D03*
G01*
X187519Y1325709D03*
G01*
X187519Y1225709D03*
G01*
X187519Y1125709D03*
G01*
X187519Y1025709D03*
G01*
X502480Y2325709D03*
G01*
X502480Y2225709D03*
G01*
X502480Y2125709D03*
G01*
X502480Y2025709D03*
G01*
X502480Y1925709D03*
G01*
X502480Y1825709D03*
G01*
X502480Y1725709D03*
G01*
X502480Y1625709D03*
G01*
X502480Y1525709D03*
G01*
X502480Y1425709D03*
G01*
X502480Y1325709D03*
G01*
X502480Y1225709D03*
G01*
X502480Y1125709D03*
G01*
X502480Y1025709D03*
D14*
G01*
X115000Y2630709D03*
G01*
X115000Y2530709D03*
D15*
G01*
X385000Y2690709D03*
G01*
X430000Y2635210D03*
G01*
X415000Y2420709D03*
G01*
X360000Y2700709D03*
G01*
X335000Y2710709D03*
G01*
X310000Y2700709D03*
G01*
X285000Y2690709D03*
G01*
X420000Y2510709D03*
G01*
X395000Y2495709D03*
G01*
X370000Y2480709D03*
G01*
X275000Y2495709D03*
G01*
X270000Y2455709D03*
G01*
X325000Y2480709D03*
G01*
X375000Y2925709D03*
G01*
X180000Y2898150D03*
G01*
X345000Y2785709D03*
G01*
X236039Y2950590D03*
G01*
X220000Y3005709D03*
G01*
X195000Y2508270D03*
G01*
X195000Y2453150D03*
G01*
X550949Y3274099D03*
G01*
X550949Y3124099D03*
G01*
X170000Y2825709D03*
G01*
X115000Y2900709D03*
G01*
X190000Y345000D03*
G01*
X410000Y345000D03*
G01*
X135000Y435709D03*
G01*
X215470Y3270709D03*
G01*
X215470Y3190709D03*
G01*
X275000Y3105709D03*
G01*
X260000Y886419D03*
G01*
X260000Y725000D03*
M02*
